# 3ds Max Wavefront OBJ Exporter v0.97b - (c)2007 guruware
# File Created: 14.07.2015 11:51:43

mtllib Environment_Road.mtl

#
# object Road
#

v  -13.8843 0.0000 1002.7452
v  -13.8843 0.0000 -1005.5284
v  -12.8526 0.0000 -1005.5284
v  -12.8526 0.0000 1002.7452
v  -5.9160 0.0000 -1005.5284
v  -5.9160 0.0000 1002.7452
v  -4.8843 0.0000 -1005.5284
v  -4.8843 0.0000 1002.7452
v  -13.8843 0.0198 1002.7452
v  -12.8526 0.5000 1002.7452
v  -12.8526 0.5000 -1005.5284
v  -13.8843 0.0198 -1005.5284
v  -5.9160 0.5000 1002.7452
v  -5.9160 0.5000 -1005.5284
v  -4.8843 0.0198 1002.7452
v  -4.8843 0.0198 -1005.5284
# 16 vertices

vn 0.0000 -1.0000 -0.0000
vn -0.4220 0.9066 -0.0000
vn -0.2161 0.9764 -0.0000
vn 0.2161 0.9764 -0.0000
vn 0.4220 0.9066 -0.0000
vn 0.0000 0.0000 1.0000
vn 1.0000 0.0000 -0.0000
vn 0.0000 0.0000 -1.0000
vn -1.0000 0.0000 -0.0000
# 9 vertex normals

vt -111.0648 1.0000 0.0000
vt 112.0648 1.0000 0.0000
vt 112.0648 0.8853 0.0000
vt -111.0648 0.8854 0.0000
vt 112.0648 0.1146 0.0000
vt -111.0648 0.1147 0.0000
vt 112.0648 -0.0000 0.0000
vt -111.0648 0.0000 0.0000
vt -111.0648 1.0000 0.0396
vt -111.0648 0.8854 1.0000
vt 112.0648 0.8853 1.0000
vt 112.0648 1.0000 0.0396
vt -111.0648 0.1147 1.0000
vt 112.0648 0.1146 1.0000
vt -111.0648 0.0000 0.0396
vt 112.0648 -0.0000 0.0396
# 16 texture coords

g Road
usemtl 02___Default
s 2
f 1/1/1 2/2/1 3/3/1 4/4/1 
f 4/4/1 3/3/1 5/5/1 6/6/1 
f 6/6/1 5/5/1 7/7/1 8/8/1 
s 4
f 9/9/2 10/10/3 11/11/3 12/12/2 
f 10/10/3 13/13/4 14/14/4 11/11/3 
f 13/13/4 15/15/5 16/16/5 14/14/4 
s 8
f 1/1/6 4/4/6 10/10/6 9/9/6 
f 4/4/6 6/6/6 13/13/6 10/10/6 
f 6/6/6 8/8/6 15/15/6 13/13/6 
s 16
f 8/8/7 7/7/7 16/16/7 15/15/7 
s 32
f 7/7/8 5/5/8 14/14/8 16/16/8 
f 5/5/8 3/3/8 11/11/8 14/14/8 
f 3/3/8 2/2/8 12/12/8 11/11/8 
s 64
f 2/2/9 1/1/9 9/9/9 12/12/9 
# 14 polygons

